<?xml version="1.0" standalone="no"?>
<!DOCTYPE svg PUBLIC "-//W3C//DTD SVG 1.1//EN" "http://www.w3.org/Graphics/SVG/1.1/DTD/svg11.dtd" >
<svg xmlns="http://www.w3.org/2000/svg" xmlns:xlink="http://www.w3.org/1999/xlink" version="1.1">
<metadata></metadata>
<defs>
<font id="nimbus_sans_lbold" horiz-adv-x="1138" >
<font-face units-per-em="2048" ascent="1638" descent="-410" />
<missing-glyph horiz-adv-x="569" />
<glyph horiz-adv-x="0" />
<glyph horiz-adv-x="682" />
<glyph unicode=" "  horiz-adv-x="569" />
<glyph unicode="&#x09;" horiz-adv-x="569" />
<glyph unicode="&#xa0;" horiz-adv-x="569" />
<glyph unicode="!" horiz-adv-x="681" d="M229 0v299h308v-299h-308zM229 1057v430h308v-430l-86 -633h-138z" />
<glyph unicode="&#x22;" horiz-adv-x="970" d="M102 1227v266h283v-266l-86 -264h-115zM586 1227v266h282v-266l-86 -264h-114z" />
<glyph unicode="#" d="M6 352v203h199l61 313h-203v203h244l70 356h215l-70 -356h211l70 356h215l-70 -356h185v-203h-224l-63 -313h205v-203h-244l-82 -418h-215l82 418h-211l-82 -418h-217l82 418h-158zM420 555h211l61 313h-211z" />
<glyph unicode="$" d="M45 406v18h268q9 -217 185 -248v436q-418 95 -418 437q0 172 110 278t308 125v111h139v-111q194 -11 306.5 -125.5t115.5 -306.5h-262q3 94 -39.5 154.5t-120.5 70.5v-411q238 -66 340 -166t102 -269q0 -115 -46.5 -209.5t-129.5 -148.5q-106 -67 -266 -84v-215h-139v215 q-91 9 -154.5 30.5t-122.5 63.5q-176 125 -176 355zM332 1057q0 -67 40 -111t126 -72v371q-166 -34 -166 -188zM637 176q172 43 172 199q0 151 -172 203v-402z" />
<glyph unicode="%" horiz-adv-x="1820" d="M45 1063q0 154 111 263.5t266 109.5q158 0 267.5 -109.5t109.5 -267.5q0 -151 -111.5 -260t-265.5 -109q-155 0 -266 109.5t-111 263.5zM248 1063q0 -71 51 -121.5t123 -50.5q71 0 122.5 50.5t51.5 119.5q0 72 -51 122t-123 50t-123 -50.5t-51 -119.5zM430 -41l811 1493 h156l-809 -1493h-158zM1014 348q0 154 111 263.5t266 109.5q158 0 267 -109.5t109 -269.5q0 -151 -111 -260t-265 -109q-155 0 -266 110t-111 265zM1217 346q0 -71 51 -121.5t123 -50.5q71 0 122.5 50.5t51.5 119.5q0 72 -51 123t-123 51t-123 -50.5t-51 -121.5z" />
<glyph unicode="&#x26;" horiz-adv-x="1478" d="M113 395q0 145 70.5 238.5t250.5 187.5q-21 28 -24 31l-58 70q-86 103 -86 217q0 145 111.5 243.5t275.5 98.5t264.5 -87.5t100.5 -230.5q0 -110 -52 -188t-188 -172l238 -295q34 65 47.5 117t13.5 118v21h232v-23v-10q-3 -118 -41 -232t-99 -184l252 -315h-329l-95 115 q-124 -93 -209 -127.5t-190 -34.5q-218 0 -351.5 121.5t-133.5 320.5zM385 430q0 -92 67 -166t150 -74q99 0 246 113l-279 350l-96 -59q-88 -59 -88 -164zM537 1159q0 -38 17.5 -68t94.5 -128q123 67 123 176q0 57 -30.5 87.5t-86.5 30.5q-52 0 -85 -27.5t-33 -70.5z" />
<glyph unicode="'" horiz-adv-x="487" d="M102 1227v266h283v-266l-86 -264h-115z" />
<glyph unicode="(" horiz-adv-x="681" d="M82 543q0 236 79 460.5t255 489.5h205q-163 -313 -225 -519t-62 -431t62 -430.5t225 -522.5h-205q-176 265 -255 490.5t-79 462.5z" />
<glyph unicode=")" horiz-adv-x="681" d="M45 -410q162 313 224.5 519.5t62.5 431.5t-62 430t-225 522h205q176 -265 255 -490t79 -462q0 -236 -79 -461.5t-255 -489.5h-205z" />
<glyph unicode="*" horiz-adv-x="796" d="M47 1188l45 141l223 -74v238h148v-238l223 74l45 -143l-223 -72l137 -192l-119 -88l-137 192l-137 -192l-119 88l137 192z" />
<glyph unicode="+" horiz-adv-x="1196" d="M102 352v244h373v373h244v-373h373v-244h-373v-372h-244v372h-373z" />
<glyph unicode="," horiz-adv-x="569" d="M131 0v299h307v-281q0 -120 -24 -186t-86 -113q-78 -61 -197 -75v114q91 19 133.5 75.5t42.5 160.5v6h-176z" />
<glyph unicode="-" horiz-adv-x="681" d="M53 424v276h557v-276h-557z" />
<glyph unicode="." horiz-adv-x="569" d="M131 0v299h307v-299h-307z" />
<glyph unicode="/" horiz-adv-x="569" d="M4 -29l422 1491h137l-422 -1491h-137z" />
<glyph unicode="0" d="M59 717q0 414 123 579q66 91 163 139t214 48q128 0 230.5 -55.5t166.5 -159.5q103 -166 103 -559q0 -403 -123 -570q-136 -186 -377 -186q-127 0 -229.5 56t-167.5 159q-103 168 -103 549zM346 719q0 -313 45 -408q53 -112 168 -112q125 0 176 133q15 44 26 154t11 229 q0 325 -45 420q-53 116 -168 116q-125 0 -176 -137q-15 -45 -26 -157.5t-11 -237.5z" />
<glyph unicode="1" d="M139 1001v191q377 0 445 260h190v-1452h-287v1001h-348z" />
<glyph unicode="2" d="M61 0q7 137 39.5 230.5t102 171t194.5 163.5q126 90 193.5 144t110.5 106.5t55 95t12 105.5q0 109 -55 171t-150 62q-98 0 -152.5 -67t-54.5 -189v-47h-274q-2 23 -2 51q0 230 125.5 358t351.5 128q228 0 363 -125t135 -336q0 -148 -68.5 -251t-257.5 -241 q-162 -118 -215 -167t-80 -107h615v-256h-988z" />
<glyph unicode="3" d="M59 426h279q12 -227 217 -227q94 0 154.5 62t60.5 157q0 79 -43 138t-115 79q-37 9 -65.5 11.5t-102.5 2.5v193h25q254 0 254 219q0 91 -47 140.5t-133 49.5q-63 0 -109.5 -27t-66.5 -75q-20 -54 -23 -154h-266v25q0 193 84 299q61 79 161.5 121.5t225.5 42.5 q211 0 336 -107.5t125 -288.5q0 -100 -45 -173t-146 -136q123 -60 180.5 -146.5t57.5 -213.5q0 -212 -138 -338.5t-370 -126.5q-223 0 -356 127.5t-134 345.5z" />
<glyph unicode="4" d="M49 322v241l531 889h338v-893h151v-237h-151v-322h-287v322h-582zM252 559h379v621z" />
<glyph unicode="5" d="M55 379h283q5 -88 56 -134t145 -46q108 0 170.5 73.5t62.5 200.5q0 132 -62 206.5t-171 74.5q-137 0 -185 -111h-258l129 809h776v-256h-600l-47 -303q63 47 121.5 67.5t130.5 20.5q201 0 327 -139.5t126 -362.5q0 -235 -145.5 -380.5t-378.5 -145.5q-212 0 -344.5 117.5 t-135.5 308.5z" />
<glyph unicode="6" d="M66 690q0 198 28 329.5t92 237.5q66 109 173.5 167.5t242.5 58.5q118 0 214 -43.5t153 -122.5q28 -40 43.5 -82.5t25.5 -112.5h-266q-28 69 -68.5 99t-109.5 30q-86 0 -144.5 -55t-78.5 -154q-9 -48 -12 -76t-7 -139q67 70 133 99.5t156 29.5q187 0 304.5 -131 t117.5 -340q0 -237 -134.5 -384.5t-350.5 -147.5q-129 0 -237 57t-171 158q-55 87 -79.5 210.5t-24.5 311.5zM348 461q0 -116 61.5 -189t159.5 -73q96 0 159 75.5t63 192.5q0 120 -60 192t-160 72t-161.5 -75t-61.5 -195z" />
<glyph unicode="7" d="M59 1196v256h1022v-225q-258 -312 -379 -597.5t-141 -629.5h-289q29 231 72.5 391.5t118.5 319.5q43 95 148 254.5t171 230.5h-723z" />
<glyph unicode="8" d="M45 418q0 129 56 217.5t182 155.5q-99 53 -144 122.5t-45 173.5q0 172 132 284t335 112q201 0 333 -111.5t132 -281.5q0 -71 -25 -134t-69 -104q-29 -25 -94 -61q126 -67 181.5 -155.5t55.5 -217.5q0 -206 -143.5 -335.5t-370.5 -129.5q-229 0 -372.5 129.5t-143.5 335.5 zM332 434q0 -107 61.5 -171t165.5 -64t166.5 63.5t62.5 167.5q0 114 -61.5 180t-167.5 66q-103 0 -165 -66t-62 -176zM346 1063q0 -85 61 -139t156 -54q94 0 154.5 54t60.5 137q0 85 -60 137.5t-155 52.5q-97 0 -157 -52.5t-60 -135.5z" />
<glyph unicode="9" d="M57 971q0 227 136 369.5t354 142.5q131 0 235.5 -60.5t173.5 -177.5q101 -167 101 -487q0 -175 -32 -330.5t-89 -251.5q-132 -225 -414 -225q-187 0 -313 110t-131 277h276q4 -64 52.5 -102.5t123.5 -38.5q240 0 240 413q-61 -68 -81 -83q-4 -4 -9 -7q-72 -53 -188 -53 q-194 0 -314.5 140t-120.5 364zM330 975q0 -125 57.5 -197.5t155.5 -72.5q99 0 160 73t61 193q0 128 -60.5 203t-164.5 75q-95 0 -152 -74t-57 -200z" />
<glyph unicode=":" horiz-adv-x="681" d="M231 0v299h308v-299h-308zM231 766v299h308v-299h-308z" />
<glyph unicode=";" horiz-adv-x="681" d="M231 0v299h308v-281q0 -120 -24.5 -186t-86.5 -113q-78 -61 -197 -75v114q91 19 134 75.5t43 160.5v6h-177zM231 766v299h308v-299h-308z" />
<glyph unicode="&#x3c;" horiz-adv-x="1196" d="M82 352v248l1001 371v-223l-782 -273l782 -268v-227z" />
<glyph unicode="=" horiz-adv-x="1196" d="M102 106v244h992v-244h-992zM102 598v244h992v-244h-992z" />
<glyph unicode="&#x3e;" horiz-adv-x="1196" d="M82 -20v223l782 272l-782 268v228l1001 -373v-248z" />
<glyph unicode="?" horiz-adv-x="1251" d="M131 985q2 126 23.5 207.5t72.5 148.5q133 183 402 183q226 0 368 -131t142 -340q0 -129 -52 -213t-194 -185q-93 -65 -115 -103.5t-22 -139.5h-254q-4 130 38.5 215t164.5 190q90 73 117.5 117t27.5 113q0 100 -61.5 167.5t-153.5 67.5q-101 0 -166 -84.5t-59 -208.5v-4 h-279zM481 0v299h307v-299h-307z" />
<glyph unicode="@" horiz-adv-x="1996" d="M55 541q0 178 79 364t214 326q284 295 709 295q390 0 655 -256q117 -114 172 -246t55 -297q0 -249 -167 -440q-73 -83 -162.5 -127.5t-182.5 -44.5q-105 0 -182 53q-32 22 -47 42.5t-27 57.5q-60 -72 -141 -112.5t-166 -40.5q-140 0 -238 102t-98 248q0 103 40.5 212 t111.5 197q69 86 169 136.5t204 50.5q86 0 141 -35.5t92 -112.5l33 127h184l-160 -573q-16 -61 -16 -86q0 -46 27 -73t73 -27q54 0 114.5 39.5t111.5 107.5q104 144 104 330q0 242 -201 422q-212 188 -509 188q-359 0 -582 -258q-100 -116 -155.5 -264t-55.5 -301 q0 -313 242 -502q215 -166 499 -166q235 0 424 84l58 -149q-206 -95 -486 -95q-194 0 -346 47.5t-280 147.5q-147 115 -228.5 280.5t-81.5 348.5zM727 500q0 -92 52.5 -155.5t129.5 -63.5q44 0 94 26.5t87 69.5q57 66 93 159t36 171q0 97 -46 152.5t-126 55.5 q-78 0 -153 -59.5t-121 -156.5t-46 -199z" />
<glyph unicode="A" horiz-adv-x="1478" d="M53 0l531 1493h340l516 -1493h-316l-98 301h-559l-100 -301h-314zM553 557h389l-194 584z" />
<glyph unicode="B" horiz-adv-x="1478" d="M168 0v1493h666q120 0 203 -26t149 -83q63 -55 99 -131t36 -153q0 -95 -47.5 -165.5t-157.5 -141.5q248 -145 248 -363q0 -90 -40 -177t-107 -144t-157.5 -83t-219.5 -26h-672zM475 256h367q112 0 169.5 49.5t57.5 143.5q0 95 -57.5 144.5t-169.5 49.5h-367v-387z M475 899h334q106 0 161.5 43t55.5 125q0 83 -55.5 126.5t-161.5 43.5h-334v-338z" />
<glyph unicode="C" horiz-adv-x="1478" d="M90 733q0 362 184 573.5t500 211.5q167 0 301.5 -61t220.5 -175q47 -63 70 -130.5t31 -164.5h-293q-13 60 -28 94.5t-40 65.5q-86 108 -252 108q-182 0 -284.5 -139.5t-102.5 -386.5q0 -245 99.5 -381.5t277.5 -136.5q143 0 230 78.5t100 220.5h299 q-13 -256 -185.5 -406.5t-451.5 -150.5q-312 0 -494 210.5t-182 569.5z" />
<glyph unicode="D" horiz-adv-x="1478" d="M158 0v1493h583q172 0 284 -40.5t187 -131.5q89 -105 136 -253t47 -320q0 -174 -47 -322t-136 -252q-75 -91 -188 -132.5t-283 -41.5h-583zM465 256h276q346 0 346 489q0 492 -346 492h-276v-981z" />
<glyph unicode="E" horiz-adv-x="1366" d="M162 0v1493h1079v-256h-772v-338h715v-256h-715v-387h809v-256h-1116z" />
<glyph unicode="F" horiz-adv-x="1251" d="M152 0v1493h1048v-256h-741v-338h653v-256h-653v-643h-307z" />
<glyph unicode="G" horiz-adv-x="1593" d="M86 735q0 230 90.5 408t255 276.5t377.5 98.5q270 0 444.5 -136t202.5 -366h-289q-20 58 -39.5 89.5t-52.5 59.5q-104 90 -264 90q-195 0 -306.5 -137.5t-111.5 -378.5q0 -230 120 -377t306 -147q89 0 169 37.5t136 105.5q63 74 74 189h-340v256h598v-807h-184l-37 197 q-86 -126 -193 -183t-258 -57q-199 0 -358.5 100.5t-249.5 279.5t-90 402z" />
<glyph unicode="H" horiz-adv-x="1478" d="M139 0v1493h307v-559h590v559h310v-1493h-308v678h-592v-678h-307z" />
<glyph unicode="I" horiz-adv-x="569" d="M129 0v1493h307v-1493h-307z" />
<glyph unicode="J" d="M49 406v147h307v-143q0 -103 39 -149t127 -46q80 0 123 45t43 129v1104h307v-1104q0 -209 -125 -322.5t-354 -113.5q-211 0 -342 119q-66 62 -95.5 140t-29.5 194z" />
<glyph unicode="K" horiz-adv-x="1478" d="M152 0v1493h307v-655l583 655h363l-596 -643l659 -850h-366l-490 659l-153 -159v-500h-307z" />
<glyph unicode="L" horiz-adv-x="1251" d="M164 0v1493h307v-1237h715v-256h-1022z" />
<glyph unicode="M" horiz-adv-x="1705" d="M135 0v1493h459l270 -1188l262 1188h463v-1493h-307v1163l-264 -1163h-307l-269 1163v-1163h-307z" />
<glyph unicode="N" horiz-adv-x="1478" d="M139 0v1493h316l592 -1016v1016h307v-1493h-307l-601 1032v-1032h-307z" />
<glyph unicode="O" horiz-adv-x="1593" d="M82 735q0 167 54.5 318t154.5 258q192 207 508 207q320 0 512 -207q100 -108 154.5 -260t54.5 -326q0 -158 -56 -310t-153 -255q-192 -207 -510 -207t-510 207q-100 106 -154.5 256.5t-54.5 318.5zM389 735q0 -235 113 -377.5t299 -142.5q184 0 297.5 141.5t113.5 370.5 q0 243 -111 385.5t-300 142.5q-186 0 -299 -142.5t-113 -377.5z" />
<glyph unicode="P" horiz-adv-x="1366" d="M156 0v1493h659q233 0 357 -119.5t124 -343.5q0 -227 -122.5 -362.5t-327.5 -135.5h-383v-532h-307zM463 788h287q123 0 181 55t58 169q0 116 -58 170.5t-181 54.5h-287v-449z" />
<glyph unicode="Q" horiz-adv-x="1593" d="M88 735q0 167 55 318.5t154 257.5q192 207 510 207t510 -207q98 -106 153.5 -257t55.5 -315q0 -150 -44.5 -293t-119.5 -235l164 -156l-156 -166l-176 166q-89 -54 -180 -78t-207 -24q-318 0 -510 207q-99 106 -154 257t-55 318zM395 735q0 -235 112.5 -377.5 t297.5 -142.5q107 0 180 39l-158 149l156 166l168 -159q68 136 68 323q0 238 -112 380t-300 142q-186 0 -299 -142.5t-113 -377.5z" />
<glyph unicode="R" horiz-adv-x="1478" d="M164 0v1493h801q189 0 288 -102q113 -116 113 -301q0 -270 -252 -369q41 -18 63.5 -28.5t47.5 -30t36.5 -33t24 -46.5t17 -60.5t9.5 -86t6 -111.5t3 -147q0 -49 14.5 -75.5t50.5 -47.5v-55h-329q-29 54 -38 102.5t-9 153.5q0 59 2 98q2 27 2 60q0 94 -45.5 136t-145.5 42 h-352v-592h-307zM471 848h371q66 0 101.5 8.5t60.5 30.5q55 49 55 160q0 105 -55 151q-27 23 -61 31t-101 8h-371v-389z" />
<glyph unicode="S" horiz-adv-x="1366" d="M66 446h299q8 -120 93.5 -183.5t241.5 -63.5q140 0 220.5 53.5t80.5 146.5q0 91 -63 139.5t-217 77.5l-209 41q-227 43 -323.5 135.5t-96.5 266.5q0 218 148 338.5t417 120.5q329 0 482 -170q55 -61 79.5 -134t24.5 -176h-287q-8 114 -87.5 174t-225.5 60 q-118 0 -188 -50t-70 -135q0 -81 59 -121.5t224 -72.5l233 -45q207 -40 301 -137.5t94 -274.5q0 -227 -161.5 -355t-450.5 -128q-286 0 -445.5 127t-172.5 366z" />
<glyph unicode="T" horiz-adv-x="1251" d="M29 1237v256h1196v-256h-437v-1237h-307v1237h-452z" />
<glyph unicode="U" horiz-adv-x="1478" d="M156 481v1012h307v-1012q0 -135 70 -200.5t215 -65.5t214.5 65.5t69.5 200.5v1012h307v-1012q0 -247 -145 -377q-168 -151 -446 -151q-279 0 -447 151q-145 130 -145 377z" />
<glyph unicode="V" horiz-adv-x="1366" d="M49 1493h309l332 -1124l326 1124h309l-512 -1493h-260z" />
<glyph unicode="W" horiz-adv-x="1933" d="M27 1493h325l232 -1118l231 1118h303l242 -1120l223 1120h326l-414 -1493h-276l-250 1165l-244 -1165h-276z" />
<glyph unicode="X" horiz-adv-x="1366" d="M45 0l471 752l-455 741h365l262 -492l275 492h356l-461 -731l479 -762h-364l-287 518l-285 -518h-356z" />
<glyph unicode="Y" horiz-adv-x="1366" d="M55 1493h342l305 -659l285 659h344l-473 -940v-553h-307v553z" />
<glyph unicode="Z" horiz-adv-x="1251" d="M61 0v256l764 981h-764v256h1123v-256l-762 -981h762v-256h-1123z" />
<glyph unicode="[" horiz-adv-x="681" d="M135 -410v1903h496v-209h-230v-1485h230v-209h-496z" />
<glyph unicode="\" horiz-adv-x="569" d="M-25 1462h138l479 -1491h-137z" />
<glyph unicode="]" horiz-adv-x="681" d="M37 -201h229v1485h-229v209h495v-1903h-495v209z" />
<glyph unicode="^" horiz-adv-x="1196" d="M125 553l338 870h256l350 -870h-231l-248 614l-236 -614h-229z" />
<glyph unicode="_" d="M-45 -246h1229v-141h-1229v141z" />
<glyph unicode="`" horiz-adv-x="681" d="M35 1550h258l143 -307h-143z" />
<glyph unicode="a" d="M57 285q0 149 80.5 234.5t245.5 113.5l115 20q106 17 128.5 22.5t51.5 20.5q49 25 49 86q0 111 -166 111q-105 0 -148.5 -33t-54.5 -119h-276q27 383 473 383q224 0 338.5 -85.5t114.5 -254.5v-614q0 -43 13.5 -71.5t51.5 -63.5v-35h-311q-20 25 -26.5 46.5t-6.5 64.5 q-152 -158 -336 -158q-74 0 -142.5 27.5t-115.5 76.5q-78 84 -78 228zM344 317q0 -61 42 -97t114 -36q109 0 168 67.5t59 192.5v78q-27 -13 -47 -19t-74 -16l-98 -18q-89 -19 -126.5 -53.5t-37.5 -98.5z" />
<glyph unicode="b" horiz-adv-x="1251" d="M121 0v1493h287v-530q102 161 305 161q101 0 195 -48t151 -130q56 -80 87.5 -187.5t31.5 -219.5q0 -250 -133.5 -418t-331.5 -168q-202 0 -305 160v-113h-287zM408 543q0 -158 66 -254t175 -96q106 0 174 96.5t68 247.5q0 153 -68 250.5t-174 97.5q-107 0 -174 -95.5 t-67 -246.5z" />
<glyph unicode="c" d="M70 530q0 282 137 438t385 156q207 0 334.5 -115t142.5 -317h-274q-25 109 -71.5 155t-133.5 46q-127 0 -178 -94q-56 -106 -56 -269q0 -161 62.5 -253.5t171.5 -92.5q83 0 130 46t75 153h274q-20 -198 -150 -314t-331 -116q-246 0 -382 151.5t-136 425.5z" />
<glyph unicode="d" horiz-adv-x="1251" d="M59 537q0 165 61 299.5t167.5 211t236.5 76.5q201 0 305 -161v530h287v-1493h-287v113q-106 -160 -305 -160q-101 0 -195 48t-151 128q-56 80 -87.5 188t-31.5 220zM346 537q0 -152 67.5 -248t174.5 -96t174 94t67 245q0 158 -66 255.5t-175 97.5q-107 0 -174.5 -97 t-67.5 -251z" />
<glyph unicode="e" d="M45 524q0 278 137 439t375 161q167 0 293.5 -85t181.5 -236q43 -124 43 -291q0 -24 -2 -49h-741q5 -141 41 -195q65 -96 188 -96q78 0 135.5 36.5t83.5 102.5h283q-47 -163 -186.5 -260.5t-325.5 -97.5q-235 0 -370.5 153t-135.5 418zM336 653h440q-8 104 -45 160 q-31 43 -77.5 67.5t-100.5 24.5q-190 0 -217 -252z" />
<glyph unicode="f" horiz-adv-x="681" d="M29 893v190h155v134q0 276 283 276q85 0 164 -6v-215q-37 6 -82 6q-78 0 -78 -86v-109h170v-190h-170v-893h-287v893h-155z" />
<glyph unicode="g" horiz-adv-x="1251" d="M70 526q0 257 131 427.5t327 170.5q96 0 170 -45t138 -143v170h272v-1143q0 -195 -137.5 -302t-388.5 -107t-381 106q-56 46 -82 94.5t-27 112.5h297q35 -129 203 -129q107 0 175.5 62.5t68.5 162.5v150q-79 -90 -148 -125t-166 -35q-204 0 -328 157.5t-124 415.5z M356 530q0 -150 64 -243.5t166 -93.5q113 0 183.5 93.5t70.5 243.5q0 153 -71.5 254t-178.5 101q-104 0 -169 -99t-65 -256z" />
<glyph unicode="h" horiz-adv-x="1251" d="M137 0v1493h287v-547q118 178 324 178q147 0 247 -84q113 -94 113 -299v-741h-287v676q0 53 -7 81t-26 56q-50 68 -143 68q-97 0 -159 -61t-62 -156v-664h-287z" />
<glyph unicode="i" horiz-adv-x="569" d="M137 0v1106h287v-1106h-287zM137 1237v256h287v-256h-287z" />
<glyph unicode="j" horiz-adv-x="569" d="M8 -207q27 -8 51 -8q46 0 65 19.5t19 66.5v1235h287v-1299q0 -135 -59 -194t-193 -59q-75 0 -170 10v229zM143 1237v256h287v-256h-287z" />
<glyph unicode="k" d="M121 0v1493h287v-817l362 430h326l-377 -418l403 -688h-336l-264 487l-114 -125v-362h-287z" />
<glyph unicode="l" horiz-adv-x="569" d="M137 0v1493h287v-1493h-287z" />
<glyph unicode="m" horiz-adv-x="1820" d="M123 0v1106h285v-137q71 85 139.5 120t163.5 35q103 0 182 -42.5t119 -120.5q64 86 141 124.5t182 38.5q166 0 259.5 -90.5t93.5 -251.5v-782h-287v737q0 66 -42 105t-114 39q-92 0 -144 -58t-52 -159v-664h-287v737q0 66 -42 105t-114 39q-92 0 -144 -58t-52 -159v-664 h-287z" />
<glyph unicode="n" horiz-adv-x="1251" d="M129 0v1106h287v-160q62 93 141 135.5t191 42.5q177 0 273.5 -100t96.5 -283v-741h-287v682q0 199 -184 199q-104 0 -167.5 -59.5t-63.5 -157.5v-664h-287z" />
<glyph unicode="o" horiz-adv-x="1251" d="M72 539q0 272 145.5 428.5t398.5 156.5q260 0 404.5 -156.5t144.5 -437.5q0 -266 -147.5 -421.5t-399.5 -155.5q-255 0 -400.5 156t-145.5 430zM358 539q0 -159 71.5 -257t188.5 -98q115 0 188 98t73 253q0 163 -71 260.5t-190 97.5q-117 0 -188.5 -97.5t-71.5 -256.5z " />
<glyph unicode="p" horiz-adv-x="1251" d="M119 -446v1552h287v-164q104 182 307 182q100 0 194 -48t150 -126q56 -77 87.5 -186.5t31.5 -226.5q0 -252 -132 -419t-331 -167q-205 0 -307 180v-577h-287zM406 537q0 -155 67 -251t174 -96q106 0 174 96t68 246q0 158 -66.5 255.5t-175.5 97.5q-107 0 -174 -96.5 t-67 -251.5z" />
<glyph unicode="q" horiz-adv-x="1251" d="M57 537q0 167 60 301t166 210t237 76q205 0 307 -182v164h287v-1552h-287v577q-101 -180 -309 -180q-98 0 -192 48t-150 126q-55 75 -87 185t-32 227zM344 537q0 -155 67.5 -251t174.5 -96t174 94.5t67 245.5q0 161 -66 258t-175 97q-107 0 -174.5 -96.5t-67.5 -251.5z " />
<glyph unicode="r" horiz-adv-x="796" d="M129 0v1106h287v-217q45 112 126.5 173.5t180.5 61.5q19 0 35 -2v-291q-58 9 -90 9q-252 0 -252 -252v-588h-287z" />
<glyph unicode="s" d="M59 322h281q9 -44 20.5 -66t34.5 -39q58 -39 170 -39q100 0 156.5 29t56.5 80q0 34 -21 53.5t-75 36.5l-342 106q-79 26 -115 44.5t-65 47.5q-62 68 -62 181q0 170 122 269t333 99q223 0 350.5 -99.5t130.5 -274.5h-276q-3 149 -207 149q-75 0 -120.5 -28t-45.5 -74 q0 -33 20 -50t80 -36l363 -105q217 -64 217 -278q0 -81 -34.5 -154t-96.5 -123q-122 -98 -352 -98q-252 0 -384.5 93.5t-138.5 275.5z" />
<glyph unicode="t" horiz-adv-x="681" d="M29 893v190h141v297h287v-297h159v-190h-159v-602q0 -73 18.5 -97t75.5 -24q21 0 65 6v-201q-70 -22 -165 -22q-281 0 -281 260v680h-141z" />
<glyph unicode="u" horiz-adv-x="1251" d="M119 336v770h287v-711q0 -198 184 -198q104 0 167.5 59.5t63.5 157.5v692h287v-1106h-287v131q-62 -93 -141 -135.5t-191 -42.5q-177 0 -273.5 100t-96.5 283z" />
<glyph unicode="v" d="M29 1106h303l239 -809l224 809h303l-381 -1106h-301z" />
<glyph unicode="w" horiz-adv-x="1593" d="M10 1106h297l176 -774l168 774h287l166 -774l168 774h297l-314 -1106h-297l-165 780l-177 -780h-294z" />
<glyph unicode="x" d="M33 0l368 557l-360 549h344l180 -334l178 334h344l-360 -549l369 -557h-344l-187 344l-188 -344h-344z" />
<glyph unicode="y" d="M18 1106h316l244 -805l229 805h295l-455 -1309q-35 -99 -68.5 -142.5t-93.5 -68.5q-86 -35 -206 -35q-39 0 -103 9v215q48 -13 76 -13q75 0 126.5 53.5t51.5 131.5v6v2z" />
<glyph unicode="z" horiz-adv-x="1024" d="M43 0v231l547 643h-510v232h860v-232l-543 -643h561v-231h-915z" />
<glyph unicode="{" horiz-adv-x="796" d="M76 457v188h8h25q69 2 101 32.5t32 96.5v432q0 126 71 206.5t181 80.5h155v-203h-76q-48 0 -70 -27.5t-22 -88.5v-400q0 -113 -41.5 -159.5t-156.5 -63.5q115 -19 156.5 -66t41.5 -159v-400q0 -75 20 -104t72 -29h76v-203h-155q-110 0 -181 80.5t-71 206.5v430 q0 61 -14 90t-50 47q-32 11 -94 11z" />
<glyph unicode="|" horiz-adv-x="573" d="M205 -410v1903h164v-1903h-164z" />
<glyph unicode="}" horiz-adv-x="796" d="M147 -207h76q48 0 70 28t22 89v399q0 112 41.5 159t157.5 64q-116 19 -157.5 66.5t-41.5 159.5v399q0 75 -20 104t-72 29h-76v203h156q110 0 181 -80.5t71 -206.5v-430q0 -61 13.5 -90.5t49.5 -46.5q29 -10 95 -10l8 -2v-189h-8h-25q-69 -2 -101 -32.5t-32 -96.5v-432 q0 -126 -71 -206.5t-181 -80.5h-156v203z" />
<glyph unicode="~" horiz-adv-x="1196" d="M123 346q15 297 260 297q99 0 170 -51l117 -86q40 -29 66.5 -40t58.5 -11q74 0 98 55q8 21 10 80h160q-9 -151 -73 -225t-187 -74q-94 0 -170 53l-117 86q-66 49 -125 49q-74 0 -98 -55q-8 -21 -10 -78h-160z" />
<glyph unicode="&#xa1;" horiz-adv-x="681" d="M135 49l86 633h137l84 -633v-430h-307v430zM135 807v299h307v-299h-307z" />
<glyph unicode="&#xa2;" d="M74 530q0 264 117 416.5t339 175.5v176h91v-174q189 -3 312.5 -122t135.5 -310h-274q-20 95 -61 141.5t-113 57.5v-705q70 10 110.5 56.5t63.5 140.5h274q-17 -185 -141 -304t-307 -126v-207h-91v209q-214 13 -335 166.5t-121 408.5zM360 532q0 -288 170 -339v694 q-83 -22 -126.5 -112.5t-43.5 -242.5z" />
<glyph unicode="&#xa3;" d="M63 164q129 88 177.5 154t48.5 155q0 70 -43 174h-183v113h123q-69 121 -88.5 175t-19.5 122q0 86 40.5 168t110.5 139q130 100 336 100q160 0 276 -58t171 -167q43 -82 57 -248h-270l-2 23q-9 70 -24 105t-48 63q-61 55 -158 55q-88 0 -144 -52t-56 -134q0 -31 9 -57 t46 -101q47 -96 61 -133h285v-113h-250q31 -66 31 -121q0 -89 -53.5 -168t-184.5 -182q98 47 142 61.5t88 14.5q39 0 131 -23q76 -20 129 -20q97 0 215 59l84 -223q-85 -50 -153 -71t-144 -21q-68 0 -203 33q-125 32 -201 32q-58 0 -106.5 -13.5t-116.5 -47.5z" />
<glyph unicode="&#xa4;" d="M53 1098l142 139l157 -158q103 64 223 64q121 0 220 -62l149 150l141 -141l-153 -154q31 -62 43 -107.5t12 -103.5q0 -117 -59 -221l157 -156l-141 -139l-153 153q-70 -38 -109.5 -49.5t-95.5 -11.5q-62 0 -125.5 17.5t-102.5 46.5l-161 -160l-140 141l160 158 q-34 61 -47.5 109.5t-13.5 107.5q0 123 59 215zM352 721q0 -91 64 -155t155 -64t155.5 64.5t64.5 156.5q0 89 -64.5 154t-153.5 65q-93 0 -157 -64t-64 -157z" />
<glyph unicode="&#xa5;" d="M10 1442h285l285 -520l274 520h276l-393 -723h281v-121h-291v-109h291v-120h-291v-369h-287v369h-297v120h297v109h-297v121h283z" />
<glyph unicode="&#xa6;" horiz-adv-x="573" d="M205 387h164v-797h-164v797zM205 696v797h164v-797h-164z" />
<glyph unicode="&#xa7;" d="M68 575q0 92 39.5 155.5t148.5 146.5q-60 60 -70 75q-55 71 -55 176q0 154 121 253.5t307 99.5q119 0 213.5 -42t142.5 -114q49 -79 54 -211h-260q-10 82 -49 120t-111 38q-59 0 -95 -29t-36 -76q0 -43 37.5 -78.5t146.5 -95.5l260 -143q102 -57 150.5 -133t48.5 -180 q0 -103 -45 -169.5t-148 -113.5q144 -102 144 -274q0 -175 -124 -283.5t-323 -108.5q-213 0 -321.5 104t-110.5 308h268v-20q3 -50 11 -75.5t28 -43.5q45 -45 127 -45q69 0 112.5 35t43.5 90t-37 92q-15 15 -28.5 23.5t-77.5 43.5l-351 205q-78 46 -119.5 115.5t-41.5 154.5 zM311 649q0 -47 23.5 -78t85.5 -65l301 -164q52 36 73 66.5t21 66.5q0 49 -26.5 81.5t-98.5 70.5l-293 155q-46 -28 -66 -58.5t-20 -74.5z" />
<glyph unicode="&#xa8;" horiz-adv-x="681" d="M37 1272v250h225v-250h-225zM418 1272v250h225v-250h-225z" />
<glyph unicode="&#xa9;" horiz-adv-x="1509" d="M-29 739q0 211 105.5 391.5t286.5 286t393 105.5q158 0 303 -62t250 -167t167 -250t62 -304q0 -216 -105.5 -396t-287.5 -284t-400 -104q-155 0 -298.5 63t-247.5 168t-166 250t-62 303zM131 739q0 -170 83.5 -317t226 -233.5t307.5 -86.5q173 0 318 85t228.5 231.5 t83.5 320.5q0 129 -49.5 246.5t-133 202.5t-199 135.5t-242.5 50.5q-168 0 -311.5 -85t-227.5 -231.5t-84 -318.5zM334 737q0 220 112.5 347.5t305.5 127.5q208 0 317 -143q29 -40 42.5 -81.5t18.5 -104.5h-184q-17 83 -62.5 121t-127.5 38q-109 0 -171.5 -81.5 t-62.5 -225.5q0 -143 60.5 -223t167.5 -80q88 0 138.5 45t57.5 131h189q-7 -161 -112.5 -253.5t-277.5 -92.5q-189 0 -300 128.5t-111 346.5z" />
<glyph unicode="&#xaa;" horiz-adv-x="757" d="M63 991q0 91 47.5 142.5t147.5 68.5l70 12q60 10 74 13.5t32 13.5q31 14 31 49q0 64 -100 64q-61 0 -88 -20t-33 -70h-160q3 229 276 229t273 -205v-366q0 -27 8.5 -44t32.5 -38v-21h-189q-11 14 -14.5 26.5t-5.5 39.5q-88 -94 -201 -94q-91 0 -146 54.5t-55 145.5z M76 537v159h581v-159h-581zM236 1010q0 -37 25 -58.5t69 -21.5q64 0 99.5 40.5t35.5 114.5v48q-25 -13 -72 -21l-59 -12q-54 -10 -76 -31t-22 -59z" />
<glyph unicode="&#xab;" d="M180 446v234l342 305v-240l-207 -182l207 -182v-234zM616 446v234l342 305v-240l-206 -182l206 -182v-234z" />
<glyph unicode="&#xac;" horiz-adv-x="1196" d="M82 610v158h1032v-592h-158v434h-874z" />
<glyph unicode="&#xad;" horiz-adv-x="681" d="M53 424v276h557v-276h-557z" />
<glyph unicode="&#xae;" horiz-adv-x="1509" d="M-29 739q0 211 105.5 391.5t286.5 286t393 105.5q158 0 303 -62t250 -167t167 -250t62 -304q0 -216 -105.5 -396t-287.5 -284t-400 -104q-155 0 -298.5 63t-247.5 168t-166 250t-62 303zM131 739q0 -170 83.5 -317t226 -233.5t307.5 -86.5q173 0 318 85t228.5 231.5 t83.5 320.5q0 129 -49.5 246.5t-133 202.5t-199 135.5t-242.5 50.5q-168 0 -311.5 -85t-227.5 -231.5t-84 -318.5zM393 287v907h488q117 0 182 -65.5t65 -182.5q0 -77 -34.5 -131t-108.5 -90q30 -14 45.5 -22.5t30.5 -26.5t20.5 -33.5t11 -54.5t6.5 -76.5l3 -112.5 q0 -29 8 -43t31 -26v-43h-211q-18 35 -23.5 66t-5.5 100q0 33 2 53v35q0 52 -30 76t-95 24h-188v-354h-197zM590 807h211q74 0 102.5 24t28.5 87t-28.5 86.5t-102.5 23.5h-211v-221z" />
<glyph unicode="&#xaf;" horiz-adv-x="681" d="M33 1311v162h612v-162h-612z" />
<glyph unicode="&#xb0;" horiz-adv-x="1241" d="M309 1096q0 128 91.5 218.5t220.5 90.5q127 0 218 -90.5t91 -218.5q0 -130 -91.5 -221t-222.5 -91q-126 0 -216.5 92t-90.5 220zM438 1094q0 -72 53 -126.5t125 -54.5q77 0 131 53.5t54 129.5q0 74 -53.5 127t-126.5 53q-75 0 -129 -53.5t-54 -128.5z" />
<glyph unicode="&#xb1;" horiz-adv-x="1196" d="M115 -33v244h964v-244h-964zM115 641v244h360v360h244v-360h360v-244h-360v-360h-244v360h-360z" />
<glyph unicode="&#xb2;" horiz-adv-x="718" d="M33 582q5 125 49 197.5t164 148.5q152 101 191.5 146t39.5 114q0 61 -33 96t-92 35t-91 -38t-32 -107q0 -5 4 -33h-188q-2 16 -2 37q0 141 82.5 216.5t236.5 75.5q149 0 229.5 -71t80.5 -203q0 -92 -43 -153t-166 -146q-108 -77 -121 -88q-17 -13 -57 -61h383v-166h-635z " />
<glyph unicode="&#xb3;" horiz-adv-x="718" d="M31 848h188q5 -69 37 -102t96 -33q56 0 91.5 34.5t35.5 88.5q0 126 -172 129h-33v127h23q154 0 154 118q0 51 -29.5 81t-79.5 30q-37 0 -64 -15.5t-38 -41.5q-15 -30 -15 -95h-180q3 77 15.5 120.5t41.5 80.5q38 47 102.5 73.5t143.5 26.5q135 0 216 -65t81 -174 q0 -117 -106 -182q135 -65 135 -211q0 -129 -89 -206t-237 -77q-150 0 -232.5 76.5t-84.5 216.5z" />
<glyph unicode="&#xb4;" horiz-adv-x="681" d="M248 1243l143 307h258l-258 -307h-143z" />
<glyph unicode="&#xb6;" d="M39 1014q0 179 104 317q119 162 320 162h620v-147h-88v-1737h-200v1737h-129v-1737h-201v938q-189 9 -307.5 139.5t-118.5 327.5z" />
<glyph unicode="&#xb7;" horiz-adv-x="569" d="M131 346v252h254v-252h-254z" />
<glyph unicode="&#xb8;" horiz-adv-x="681" d="M55 -393l39 106q82 -35 127 -48t88 -13q49 0 83 24.5t34 59.5q0 32 -28.5 51.5t-75.5 19.5q-49 0 -101 -24l111 217h88l-60 -129q43 14 86 14q72 0 114 -39t42 -106q0 -92 -68 -141.5t-196 -49.5q-67 0 -124.5 12t-158.5 46z" />
<glyph unicode="&#xb9;" horiz-adv-x="718" d="M82 1174v124q239 0 283 154h131v-870h-195v592h-219z" />
<glyph unicode="&#xba;" horiz-adv-x="747" d="M47 1141q0 164 88 258t240 94q155 0 241 -93.5t86 -262.5q0 -160 -88 -253t-239 -93q-152 0 -240 93.5t-88 256.5zM68 537v159h616v-159h-616zM219 1143q0 -95 43.5 -154t112.5 -59t112 58.5t43 150.5q0 97 -42.5 156t-112.5 59q-69 0 -112.5 -58.5t-43.5 -152.5z" />
<glyph unicode="&#xbb;" d="M180 147v240l207 182l-207 183v233l342 -299v-235zM604 147v240l207 182l-207 183v233l342 -299v-235z" />
<glyph unicode="&#xbc;" horiz-adv-x="1779" d="M82 1174v124q239 0 283 154h131v-870h-195v592h-219zM348 -41l866 1505h179l-867 -1505h-178zM1085 190v152l338 528h224v-526h94v-154h-94v-190h-195v190h-367zM1235 344h217v336z" />
<glyph unicode="&#xbd;" horiz-adv-x="1779" d="M82 1174v124q239 0 283 154h131v-870h-195v592h-219zM336 -41l866 1505h178l-866 -1505h-178zM1094 0q5 125 49 197.5t164 148.5q152 101 191.5 146t39.5 114q0 61 -33 96t-92 35t-91 -38t-32 -107q0 -5 4 -33h-188q-2 16 -2 37q0 141 82.5 217t236.5 76 q149 0 229.5 -71.5t80.5 -203.5q0 -92 -43 -153t-166 -146q-100 -70 -121 -88q-17 -13 -57 -61h383v-166h-635z" />
<glyph unicode="&#xbe;" horiz-adv-x="1779" d="M31 848h188q5 -69 37 -102t96 -33q56 0 91.5 34.5t35.5 88.5q0 126 -172 129h-33v127h23q154 0 154 118q0 51 -29.5 81t-79.5 30q-37 0 -64 -15.5t-38 -41.5q-15 -30 -15 -95h-180q3 77 15.5 120.5t41.5 80.5q38 47 102.5 73.5t143.5 26.5q135 0 216 -65t81 -174 q0 -117 -106 -182q135 -65 135 -211q0 -129 -89 -206t-237 -77q-150 0 -232.5 76.5t-84.5 216.5zM414 -41l866 1505h178l-866 -1505h-178zM1085 190v152l338 528h224v-526h94v-154h-94v-190h-195v190h-367zM1235 344h217v336z" />
<glyph unicode="&#xbf;" horiz-adv-x="1251" d="M104 53q0 130 52 213.5t196 184.5q65 46 91.5 74.5t36 63.5t9.5 105h254q5 -131 -38 -216t-166 -189q-91 -73 -118.5 -117t-27.5 -113q0 -100 61.5 -167.5t153.5 -67.5q103 0 168.5 84.5t59.5 208.5v4h278q-2 -126 -23.5 -208t-72.5 -149q-132 -182 -402 -182 q-227 0 -369.5 131t-142.5 340zM457 807v299h307v-299h-307z" />
<glyph unicode="&#xc0;" horiz-adv-x="1478" d="M53 0l531 1493h340l516 -1493h-316l-98 301h-559l-100 -301h-314zM453 1917h258l143 -307h-143zM553 557h389l-194 584z" />
<glyph unicode="&#xc1;" horiz-adv-x="1478" d="M53 0l531 1493h340l516 -1493h-316l-98 301h-559l-100 -301h-314zM553 557h389l-194 584zM643 1610l143 307h258l-258 -307h-143z" />
<glyph unicode="&#xc2;" horiz-adv-x="1478" d="M53 0l531 1493h340l516 -1493h-316l-98 301h-559l-100 -301h-314zM420 1610l221 307h219l211 -307h-160l-168 205l-168 -205h-155zM553 557h389l-194 584z" />
<glyph unicode="&#xc3;" horiz-adv-x="1478" d="M53 0l531 1493h340l516 -1493h-316l-98 301h-559l-100 -301h-314zM395 1638q6 120 57 187t136 67q29 0 48 -4t66 -22l146 -51q45 -13 70 -13q64 0 73 99h129q-15 -261 -194 -261q-49 0 -113 25l-145 53q-37 13 -62 13q-37 0 -55.5 -21.5t-26.5 -71.5h-129zM553 557h389 l-194 584z" />
<glyph unicode="&#xc4;" horiz-adv-x="1478" d="M53 0l531 1493h340l516 -1493h-316l-98 301h-559l-100 -301h-314zM442 1638v250h226v-250h-226zM553 557h389l-194 584zM823 1638v250h226v-250h-226z" />
<glyph unicode="&#xc5;" horiz-adv-x="1478" d="M53 0l531 1493h340l516 -1493h-316l-98 301h-559l-100 -301h-314zM553 557h389l-194 584zM561 1759q0 77 54.5 131t132.5 54q76 0 129 -54.5t53 -132.5q0 -75 -55 -128.5t-130 -53.5q-77 0 -130.5 53.5t-53.5 130.5zM659 1759q0 -35 26 -60.5t63 -25.5q34 0 58.5 25.5 t24.5 60.5q0 36 -24 61t-59 25q-37 0 -63 -25.5t-26 -60.5z" />
<glyph unicode="&#xc6;" horiz-adv-x="2048" d="M2 0l539 1493h1396v-256h-749v-338h694v-256h-694v-387h790v-256h-1097v311h-457l-109 -311h-313zM510 567h371v670h-138z" />
<glyph unicode="&#xc7;" horiz-adv-x="1478" d="M90 733q0 362 184 573.5t500 211.5q167 0 301.5 -61t220.5 -175q47 -63 70 -130.5t31 -164.5h-293q-13 60 -28 94.5t-40 65.5q-86 108 -252 108q-182 0 -284.5 -139.5t-102.5 -386.5q0 -245 99.5 -381.5t277.5 -136.5q143 0 230 78.5t100 220.5h299q-12 -253 -179.5 -402 t-447.5 -155l-39 -82q41 14 86 14q72 0 114 -39t42 -106q0 -92 -68 -141.5t-196 -49.5q-67 0 -124.5 12t-158.5 46l39 106q82 -35 127 -48t88 -13q49 0 83 24.5t34 59.5q0 32 -29 51.5t-76 19.5q-48 0 -100 -24l88 170q-141 25 -218 58.5t-151 103.5q-227 216 -227 618z" />
<glyph unicode="&#xc8;" horiz-adv-x="1366" d="M162 0v1493h1079v-256h-772v-338h715v-256h-715v-387h809v-256h-1116zM426 1917h258l143 -307h-143z" />
<glyph unicode="&#xc9;" horiz-adv-x="1366" d="M162 0v1493h1079v-256h-772v-338h715v-256h-715v-387h809v-256h-1116zM582 1610l143 307h258l-258 -307h-143z" />
<glyph unicode="&#xca;" horiz-adv-x="1366" d="M162 0v1493h1079v-256h-772v-338h715v-256h-715v-387h809v-256h-1116zM381 1610l221 307h219l211 -307h-160l-167 205l-168 -205h-156z" />
<glyph unicode="&#xcb;" horiz-adv-x="1366" d="M162 0v1493h1079v-256h-772v-338h715v-256h-715v-387h809v-256h-1116zM403 1638v250h226v-250h-226zM784 1638v250h226v-250h-226z" />
<glyph unicode="&#xcc;" horiz-adv-x="569" d="M-20 1917h258l143 -307h-143zM129 0v1493h307v-1493h-307z" />
<glyph unicode="&#xcd;" horiz-adv-x="569" d="M129 0v1493h307v-1493h-307zM193 1610l143 307h258l-258 -307h-143z" />
<glyph unicode="&#xce;" horiz-adv-x="569" d="M-39 1610l221 307h219l211 -307h-159l-168 205l-168 -205h-156zM129 0v1493h307v-1493h-307z" />
<glyph unicode="&#xcf;" horiz-adv-x="569" d="M-18 1638v250h225v-250h-225zM129 0v1493h307v-1493h-307zM362 1638v250h226v-250h-226z" />
<glyph unicode="&#xd0;" horiz-adv-x="1478" d="M0 694v164h158v635h583q176 0 287 -40.5t186 -131.5q85 -106 133 -257.5t48 -315.5q0 -165 -48 -316.5t-133 -257.5q-73 -92 -185.5 -133t-287.5 -41h-583v694h-158zM465 256h276q100 0 162.5 26.5t102.5 84.5q94 134 94 378q0 247 -94 381q-40 58 -102.5 84.5 t-162.5 26.5h-276v-379h307v-164h-307v-438z" />
<glyph unicode="&#xd1;" horiz-adv-x="1478" d="M139 0v1493h316l592 -1016v1016h307v-1493h-307l-601 1032v-1032h-307zM397 1638q6 120 57 187t136 67q30 0 49 -4t66 -22l145 -51q45 -13 70 -13q64 0 73 99h129q-15 -261 -194 -261q-49 0 -113 25l-145 53q-37 13 -62 13q-37 0 -55.5 -21.5t-26.5 -71.5h-129z" />
<glyph unicode="&#xd2;" horiz-adv-x="1593" d="M82 735q0 167 54.5 318t154.5 258q192 207 508 207q320 0 512 -207q100 -108 154.5 -260t54.5 -326q0 -158 -56 -310t-153 -255q-192 -207 -510 -207t-510 207q-100 106 -154.5 256.5t-54.5 318.5zM389 735q0 -235 113 -377.5t299 -142.5q184 0 297.5 141.5t113.5 370.5 q0 243 -111 385.5t-300 142.5q-186 0 -299 -142.5t-113 -377.5zM520 1917h258l144 -307h-144z" />
<glyph unicode="&#xd3;" horiz-adv-x="1593" d="M82 735q0 167 54.5 318t154.5 258q192 207 508 207q320 0 512 -207q100 -108 154.5 -260t54.5 -326q0 -158 -56 -310t-153 -255q-192 -207 -510 -207t-510 207q-100 106 -154.5 256.5t-54.5 318.5zM389 735q0 -235 113 -377.5t299 -142.5q184 0 297.5 141.5t113.5 370.5 q0 243 -111 385.5t-300 142.5q-186 0 -299 -142.5t-113 -377.5zM684 1610l143 307h258l-258 -307h-143z" />
<glyph unicode="&#xd4;" horiz-adv-x="1593" d="M82 735q0 167 54.5 318t154.5 258q192 207 508 207q320 0 512 -207q100 -108 154.5 -260t54.5 -326q0 -158 -56 -310t-153 -255q-192 -207 -510 -207t-510 207q-100 106 -154.5 256.5t-54.5 318.5zM389 735q0 -235 113 -377.5t299 -142.5q184 0 297.5 141.5t113.5 370.5 q0 243 -111 385.5t-300 142.5q-186 0 -299 -142.5t-113 -377.5zM475 1610l221 307h219l211 -307h-159l-168 205l-168 -205h-156z" />
<glyph unicode="&#xd5;" horiz-adv-x="1593" d="M82 735q0 167 54.5 318t154.5 258q192 207 508 207q320 0 512 -207q100 -108 154.5 -260t54.5 -326q0 -158 -56 -310t-153 -255q-192 -207 -510 -207t-510 207q-100 106 -154.5 256.5t-54.5 318.5zM389 735q0 -235 113 -377.5t299 -142.5q184 0 297.5 141.5t113.5 370.5 q0 243 -111 385.5t-300 142.5q-186 0 -299 -142.5t-113 -377.5zM453 1638q6 120 56.5 187t135.5 67q30 0 49 -4t66 -22l145 -51q45 -13 70 -13q65 0 74 99h129q-15 -261 -195 -261q-49 0 -113 25l-145 53q-37 13 -61 13q-37 0 -55.5 -21.5t-26.5 -71.5h-129z" />
<glyph unicode="&#xd6;" horiz-adv-x="1593" d="M82 735q0 167 54.5 318t154.5 258q192 207 508 207q320 0 512 -207q100 -108 154.5 -260t54.5 -326q0 -158 -56 -310t-153 -255q-192 -207 -510 -207t-510 207q-100 106 -154.5 256.5t-54.5 318.5zM389 735q0 -235 113 -377.5t299 -142.5q184 0 297.5 141.5t113.5 370.5 q0 243 -111 385.5t-300 142.5q-186 0 -299 -142.5t-113 -377.5zM498 1638v250h225v-250h-225zM879 1638v250h225v-250h-225z" />
<glyph unicode="&#xd7;" horiz-adv-x="1196" d="M162 735l172 174l264 -264l264 264l172 -172l-264 -264l262 -264l-172 -172l-262 264l-262 -262l-172 172l262 262z" />
<glyph unicode="&#xd8;" horiz-adv-x="1593" d="M63 14l177 195q-168 226 -168 526q0 168 55 319.5t156 256.5q192 207 512 207q147 0 260 -41t215 -131l170 188l106 -92l-182 -203q71 -97 111.5 -232.5t40.5 -275.5q0 -165 -55.5 -316t-155.5 -255q-192 -207 -510 -207q-279 0 -457 153l-170 -186zM379 729 q0 -171 59 -301l643 709q-112 118 -286 118q-190 0 -303 -143t-113 -383zM524 313q47 -46 119.5 -72t151.5 -26q187 0 300 143t113 381q0 155 -47 279z" />
<glyph unicode="&#xd9;" horiz-adv-x="1478" d="M156 481v1012h307v-1012q0 -135 70 -200.5t215 -65.5t214.5 65.5t69.5 200.5v1012h307v-1012q0 -247 -145 -377q-168 -151 -446 -151q-279 0 -447 151q-145 130 -145 377zM467 1917h258l143 -307h-143z" />
<glyph unicode="&#xda;" horiz-adv-x="1478" d="M156 481v1012h307v-1012q0 -135 70 -200.5t215 -65.5t214.5 65.5t69.5 200.5v1012h307v-1012q0 -247 -145 -377q-168 -151 -446 -151q-279 0 -447 151q-145 130 -145 377zM631 1610l143 307h258l-258 -307h-143z" />
<glyph unicode="&#xdb;" horiz-adv-x="1478" d="M156 481v1012h307v-1012q0 -135 70 -200.5t215 -65.5t214.5 65.5t69.5 200.5v1012h307v-1012q0 -247 -145 -377q-168 -151 -446 -151q-279 0 -447 151q-145 130 -145 377zM422 1610l221 307h219l211 -307h-160l-168 205l-167 -205h-156z" />
<glyph unicode="&#xdc;" horiz-adv-x="1478" d="M156 481v1012h307v-1012q0 -135 70 -200.5t215 -65.5t214.5 65.5t69.5 200.5v1012h307v-1012q0 -247 -145 -377q-168 -151 -446 -151q-279 0 -447 151q-145 130 -145 377zM444 1638v250h226v-250h-226zM825 1638v250h226v-250h-226z" />
<glyph unicode="&#xdd;" horiz-adv-x="1366" d="M55 1493h342l305 -659l285 659h344l-473 -940v-553h-307v553zM582 1610l143 307h258l-258 -307h-143z" />
<glyph unicode="&#xde;" horiz-adv-x="1366" d="M156 0v1493h307v-246h352q126 0 209 -27t145 -87q127 -124 127 -351q0 -228 -121.5 -361.5t-328.5 -133.5h-383v-287h-307zM463 543h287q123 0 181 54.5t58 168.5q0 116 -58 170.5t-181 54.5h-287v-448z" />
<glyph unicode="&#xdf;" horiz-adv-x="1251" d="M137 0v1061q0 120 29.5 199t95.5 131q60 47 156.5 74.5t202.5 27.5q207 0 338 -104.5t131 -268.5q0 -209 -179 -278q52 -10 88 -28.5t74 -53.5q56 -54 80.5 -118t24.5 -159q0 -233 -123 -375.5t-324 -142.5q-45 0 -147 12v230q12 2 26 2l41 2q106 1 173 72t67 180 q0 117 -75.5 184.5t-205.5 67.5h-26v194h18q92 2 146.5 51t54.5 132q0 79 -53.5 124.5t-147.5 45.5q-85 0 -131.5 -42.5t-46.5 -119.5v-1100h-287z" />
<glyph unicode="&#xe0;" d="M57 285q0 149 80.5 234.5t245.5 113.5l115 20q106 17 128.5 22.5t51.5 20.5q49 25 49 86q0 111 -166 111q-105 0 -148.5 -33t-54.5 -119h-276q27 383 473 383q224 0 338.5 -85.5t114.5 -254.5v-614q0 -43 13.5 -71.5t51.5 -63.5v-35h-311q-20 25 -26.5 46.5t-6.5 64.5 q-152 -158 -336 -158q-74 0 -142.5 27.5t-115.5 76.5q-78 84 -78 228zM270 1550h258l144 -307h-144zM344 317q0 -61 42 -97t114 -36q109 0 168 67.5t59 192.5v78q-27 -13 -47 -19t-74 -16l-98 -18q-89 -19 -126.5 -53.5t-37.5 -98.5z" />
<glyph unicode="&#xe1;" d="M57 285q0 149 80.5 234.5t245.5 113.5l115 20q106 17 128.5 22.5t51.5 20.5q49 25 49 86q0 111 -166 111q-105 0 -148.5 -33t-54.5 -119h-276q27 383 473 383q224 0 338.5 -85.5t114.5 -254.5v-614q0 -43 13.5 -71.5t51.5 -63.5v-35h-311q-20 25 -26.5 46.5t-6.5 64.5 q-152 -158 -336 -158q-74 0 -142.5 27.5t-115.5 76.5q-78 84 -78 228zM344 317q0 -61 42 -97t114 -36q109 0 168 67.5t59 192.5v78q-27 -13 -47 -19t-74 -16l-98 -18q-89 -19 -126.5 -53.5t-37.5 -98.5zM440 1243l144 307h258l-258 -307h-144z" />
<glyph unicode="&#xe2;" d="M57 285q0 149 80.5 234.5t245.5 113.5l115 20q106 17 128.5 22.5t51.5 20.5q49 25 49 86q0 111 -166 111q-105 0 -148.5 -33t-54.5 -119h-276q27 383 473 383q224 0 338.5 -85.5t114.5 -254.5v-614q0 -43 13.5 -71.5t51.5 -63.5v-35h-311q-20 25 -26.5 46.5t-6.5 64.5 q-152 -158 -336 -158q-74 0 -142.5 27.5t-115.5 76.5q-78 84 -78 228zM231 1243l222 307h219l211 -307h-160l-168 205l-168 -205h-156zM344 317q0 -61 42 -97t114 -36q109 0 168 67.5t59 192.5v78q-27 -13 -47 -19t-74 -16l-98 -18q-89 -19 -126.5 -53.5t-37.5 -98.5z" />
<glyph unicode="&#xe3;" d="M57 285q0 149 80.5 234.5t245.5 113.5l115 20q106 17 128.5 22.5t51.5 20.5q49 25 49 86q0 111 -166 111q-105 0 -148.5 -33t-54.5 -119h-276q27 383 473 383q224 0 338.5 -85.5t114.5 -254.5v-614q0 -43 13.5 -71.5t51.5 -63.5v-35h-311q-20 25 -26.5 46.5t-6.5 64.5 q-152 -158 -336 -158q-74 0 -142.5 27.5t-115.5 76.5q-78 84 -78 228zM195 1272q6 120 56.5 187t135.5 67q30 0 45 -3.5t70 -23.5l145 -51q28 -12 70 -12q65 0 74 98h129q-12 -260 -195 -260q-49 0 -113 24l-145 54q-37 12 -61 12q-37 0 -55.5 -21t-26.5 -71h-129zM344 317 q0 -61 42 -97t114 -36q109 0 168 67.5t59 192.5v78q-27 -13 -47 -19t-74 -16l-98 -18q-89 -19 -126.5 -53.5t-37.5 -98.5z" />
<glyph unicode="&#xe4;" d="M57 285q0 149 80.5 234.5t245.5 113.5l115 20q106 17 128.5 22.5t51.5 20.5q49 25 49 86q0 111 -166 111q-105 0 -148.5 -33t-54.5 -119h-276q27 383 473 383q224 0 338.5 -85.5t114.5 -254.5v-614q0 -43 13.5 -71.5t51.5 -63.5v-35h-311q-20 25 -26.5 46.5t-6.5 64.5 q-152 -158 -336 -158q-74 0 -142.5 27.5t-115.5 76.5q-78 84 -78 228zM254 1272v250h225v-250h-225zM344 317q0 -61 42 -97t114 -36q109 0 168 67.5t59 192.5v78q-27 -13 -47 -19t-74 -16l-98 -18q-89 -19 -126.5 -53.5t-37.5 -98.5zM635 1272v250h225v-250h-225z" />
<glyph unicode="&#xe5;" d="M57 285q0 149 80.5 234.5t245.5 113.5l115 20q106 17 128.5 22.5t51.5 20.5q49 25 49 86q0 111 -166 111q-105 0 -148.5 -33t-54.5 -119h-276q27 383 473 383q224 0 338.5 -85.5t114.5 -254.5v-614q0 -43 13.5 -71.5t51.5 -63.5v-35h-311q-20 25 -26.5 46.5t-6.5 64.5 q-152 -158 -336 -158q-74 0 -142.5 27.5t-115.5 76.5q-78 84 -78 228zM344 317q0 -61 42 -97t114 -36q109 0 168 67.5t59 192.5v78q-27 -13 -47 -19t-74 -16l-98 -18q-89 -19 -126.5 -53.5t-37.5 -98.5zM373 1393q0 77 54 130.5t132 53.5q76 0 129 -54t53 -132 q0 -75 -54.5 -129t-129.5 -54q-76 0 -130 54t-54 131zM471 1393q0 -35 25.5 -60.5t62.5 -25.5q34 0 59 25.5t25 60.5t-24.5 60.5t-59.5 25.5q-37 0 -62.5 -25.5t-25.5 -60.5z" />
<glyph unicode="&#xe6;" horiz-adv-x="1820" d="M55 289q0 151 80 236.5t246 113.5l115 20q106 17 128.5 22.5t51.5 20.5q23 12 36 34.5t13 47.5q0 109 -174 109q-97 0 -140.5 -34.5t-54.5 -117.5h-268q6 383 467 383q241 0 358 -102q126 102 318 102q172 0 298 -84.5t183 -236.5q43 -121 43 -291q0 -24 -2 -49h-741 q0 -71 9 -113.5t32 -77.5q31 -47 81.5 -73.5t110.5 -26.5q73 0 133.5 39.5t79.5 99.5h283q-47 -164 -186.5 -261t-325.5 -97q-135 0 -240.5 54.5t-169.5 158.5q-95 -112 -195 -163.5t-225 -51.5q-158 0 -251 91.5t-93 246.5zM342 317q0 -63 42 -99t114 -36q110 0 168.5 67 t58.5 193v78q-47 -27 -121 -39l-98 -14q-164 -21 -164 -150zM1014 653h442q-21 252 -223 252q-98 0 -154 -64t-65 -188z" />
<glyph unicode="&#xe7;" d="M70 530q0 282 137 438t385 156q207 0 334.5 -115t142.5 -317h-274q-25 109 -71.5 155t-133.5 46q-127 0 -178 -94q-56 -106 -56 -267q0 -87 21 -162t57 -118q25 -31 68.5 -49.5t89.5 -18.5q82 0 129.5 46.5t73.5 152.5h274q-17 -192 -149 -312t-324 -118l-35 -82 q38 14 84 14q74 0 116 -39t42 -106q0 -92 -68 -141.5t-196 -49.5q-67 0 -128.5 12.5t-154.5 45.5l39 106q135 -61 213 -61q50 0 84.5 24.5t34.5 59.5q0 32 -29 51.5t-76 19.5q-50 0 -102 -24l88 174q-212 28 -325 175.5t-113 397.5z" />
<glyph unicode="&#xe8;" d="M45 524q0 278 137 439t375 161q167 0 293.5 -85t181.5 -236q43 -124 43 -291q0 -24 -2 -49h-741q5 -141 41 -195q65 -96 188 -96q78 0 135.5 36.5t83.5 102.5h283q-47 -163 -186.5 -260.5t-325.5 -97.5q-235 0 -370.5 153t-135.5 418zM272 1550h258l144 -307h-144z M336 653h440q-8 104 -45 160q-31 43 -77.5 67.5t-100.5 24.5q-190 0 -217 -252z" />
<glyph unicode="&#xe9;" d="M45 524q0 278 137 439t375 161q167 0 293.5 -85t181.5 -236q43 -124 43 -291q0 -24 -2 -49h-741q5 -141 41 -195q65 -96 188 -96q78 0 135.5 36.5t83.5 102.5h283q-47 -163 -186.5 -260.5t-325.5 -97.5q-235 0 -370.5 153t-135.5 418zM336 653h440q-8 104 -45 160 q-31 43 -77.5 67.5t-100.5 24.5q-190 0 -217 -252zM457 1243l143 307h258l-258 -307h-143z" />
<glyph unicode="&#xea;" d="M45 524q0 278 137 439t375 161q167 0 293.5 -85t181.5 -236q43 -124 43 -291q0 -24 -2 -49h-741q5 -141 41 -195q65 -96 188 -96q78 0 135.5 36.5t83.5 102.5h283q-47 -163 -186.5 -260.5t-325.5 -97.5q-235 0 -370.5 153t-135.5 418zM248 1243l221 307h219l211 -307 h-160l-168 205l-168 -205h-155zM336 653h440q-8 104 -45 160q-31 43 -77.5 67.5t-100.5 24.5q-190 0 -217 -252z" />
<glyph unicode="&#xeb;" d="M45 524q0 278 137 439t375 161q167 0 293.5 -85t181.5 -236q43 -124 43 -291q0 -24 -2 -49h-741q5 -141 41 -195q65 -96 188 -96q78 0 135.5 36.5t83.5 102.5h283q-47 -163 -186.5 -260.5t-325.5 -97.5q-235 0 -370.5 153t-135.5 418zM270 1272v250h226v-250h-226z M336 653h440q-8 104 -45 160q-31 43 -77.5 67.5t-100.5 24.5q-190 0 -217 -252zM651 1272v250h226v-250h-226z" />
<glyph unicode="&#xec;" horiz-adv-x="569" d="M-20 1550h258l143 -307h-143zM137 0v1106h287v-1106h-287z" />
<glyph unicode="&#xed;" horiz-adv-x="569" d="M137 0v1106h287v-1106h-287zM193 1243l143 307h258l-258 -307h-143z" />
<glyph unicode="&#xee;" horiz-adv-x="569" d="M-39 1243l221 307h219l211 -307h-159l-168 205l-168 -205h-156zM137 0v1106h287v-1106h-287z" />
<glyph unicode="&#xef;" horiz-adv-x="569" d="M-18 1272v250h225v-250h-225zM137 0v1106h287v-1106h-287zM362 1272v250h226v-250h-226z" />
<glyph unicode="&#xf0;" horiz-adv-x="1251" d="M72 543q0 339 231 475q124 76 258 76q73 0 174 -39q-82 131 -194 196l-158 -94l-86 76l143 90q-71 43 -184 98l137 97q72 -27 178 -86q5 -5 31 -15l178 107l105 -70l-172 -102q232 -157 342 -351.5t110 -449.5q0 -283 -144.5 -440.5t-402.5 -157.5q-256 0 -401 156.5 t-145 433.5zM360 532q0 -158 70.5 -253t187.5 -95t188 94t71 248q0 161 -70.5 257t-188.5 96q-117 0 -187.5 -95t-70.5 -252z" />
<glyph unicode="&#xf1;" horiz-adv-x="1251" d="M129 0v1106h287v-160q62 93 141 135.5t191 42.5q177 0 273.5 -100t96.5 -283v-741h-287v682q0 199 -184 199q-104 0 -167.5 -59.5t-63.5 -157.5v-664h-287zM254 1272q6 120 56.5 187t135.5 67q30 0 45 -3.5t70 -23.5l146 -51q28 -12 69 -12q65 0 74 98h129 q-12 -260 -195 -260q-48 0 -112 24l-146 54q-38 12 -61 12q-37 0 -55.5 -21t-26.5 -71h-129z" />
<glyph unicode="&#xf2;" horiz-adv-x="1251" d="M72 539q0 272 145.5 428.5t398.5 156.5q260 0 404.5 -156.5t144.5 -437.5q0 -266 -147.5 -421.5t-399.5 -155.5q-255 0 -400.5 156t-145.5 430zM338 1550h258l143 -307h-143zM358 539q0 -159 71.5 -257t188.5 -98q115 0 188 98t73 253q0 163 -71 260.5t-190 97.5 q-117 0 -188.5 -97.5t-71.5 -256.5z" />
<glyph unicode="&#xf3;" horiz-adv-x="1251" d="M72 539q0 272 145.5 428.5t398.5 156.5q260 0 404.5 -156.5t144.5 -437.5q0 -266 -147.5 -421.5t-399.5 -155.5q-255 0 -400.5 156t-145.5 430zM358 539q0 -159 71.5 -257t188.5 -98q115 0 188 98t73 253q0 163 -71 260.5t-190 97.5q-117 0 -188.5 -97.5t-71.5 -256.5z M502 1243l143 307h258l-258 -307h-143z" />
<glyph unicode="&#xf4;" horiz-adv-x="1251" d="M72 539q0 272 145.5 428.5t398.5 156.5q260 0 404.5 -156.5t144.5 -437.5q0 -266 -147.5 -421.5t-399.5 -155.5q-255 0 -400.5 156t-145.5 430zM293 1243l221 307h219l211 -307h-160l-168 205l-167 -205h-156zM358 539q0 -159 71.5 -257t188.5 -98q115 0 188 98t73 253 q0 163 -71 260.5t-190 97.5q-117 0 -188.5 -97.5t-71.5 -256.5z" />
<glyph unicode="&#xf5;" horiz-adv-x="1251" d="M72 539q0 272 145.5 428.5t398.5 156.5q260 0 404.5 -156.5t144.5 -437.5q0 -266 -147.5 -421.5t-399.5 -155.5q-255 0 -400.5 156t-145.5 430zM262 1272q6 120 57 187t136 67q29 0 44 -3.5t70 -23.5l146 -51q28 -12 69 -12q65 0 74 98h129q-12 -260 -194 -260 q-49 0 -113 24l-145 54q-37 12 -62 12q-37 0 -55.5 -21t-26.5 -71h-129zM358 539q0 -159 71.5 -257t188.5 -98q115 0 188 98t73 253q0 163 -71 260.5t-190 97.5q-117 0 -188.5 -97.5t-71.5 -256.5z" />
<glyph unicode="&#xf6;" horiz-adv-x="1251" d="M72 539q0 272 145.5 428.5t398.5 156.5q260 0 404.5 -156.5t144.5 -437.5q0 -266 -147.5 -421.5t-399.5 -155.5q-255 0 -400.5 156t-145.5 430zM315 1272v250h226v-250h-226zM358 539q0 -159 71.5 -257t188.5 -98q115 0 188 98t73 253q0 163 -71 260.5t-190 97.5 q-117 0 -188.5 -97.5t-71.5 -256.5zM696 1272v250h226v-250h-226z" />
<glyph unicode="&#xf7;" horiz-adv-x="1196" d="M102 352v244h992v-244h-992zM471 -23v252h254v-252h-254zM471 719v252h254v-252h-254z" />
<glyph unicode="&#xf8;" horiz-adv-x="1251" d="M23 4l153 158q-102 146 -102 377q0 273 147 429t404 156q218 0 372 -127l140 144l88 -84l-148 -150q97 -150 97 -368q0 -272 -147 -429t-400 -157q-109 0 -208.5 32t-160.5 87l-147 -150zM360 545q0 -92 29 -168l414 422q-42 52 -84.5 74t-97.5 22q-115 0 -188 -98 t-73 -252zM451 270q74 -86 176 -86q114 0 187 98t73 250q0 79 -25 156z" />
<glyph unicode="&#xf9;" horiz-adv-x="1251" d="M119 336v770h287v-711q0 -198 184 -198q104 0 167.5 59.5t63.5 157.5v692h287v-1106h-287v131q-62 -93 -141 -135.5t-191 -42.5q-177 0 -273.5 100t-96.5 283zM334 1550h258l143 -307h-143z" />
<glyph unicode="&#xfa;" horiz-adv-x="1251" d="M119 336v770h287v-711q0 -198 184 -198q104 0 167.5 59.5t63.5 157.5v692h287v-1106h-287v131q-62 -93 -141 -135.5t-191 -42.5q-177 0 -273.5 100t-96.5 283zM496 1243l143 307h258l-258 -307h-143z" />
<glyph unicode="&#xfb;" horiz-adv-x="1251" d="M119 336v770h287v-711q0 -198 184 -198q104 0 167.5 59.5t63.5 157.5v692h287v-1106h-287v131q-62 -93 -141 -135.5t-191 -42.5q-177 0 -273.5 100t-96.5 283zM287 1243l221 307h219l211 -307h-160l-168 205l-168 -205h-155z" />
<glyph unicode="&#xfc;" horiz-adv-x="1251" d="M119 336v770h287v-711q0 -198 184 -198q104 0 167.5 59.5t63.5 157.5v692h287v-1106h-287v131q-62 -93 -141 -135.5t-191 -42.5q-177 0 -273.5 100t-96.5 283zM309 1272v250h226v-250h-226zM690 1272v250h225v-250h-225z" />
<glyph unicode="&#xfd;" d="M18 1106h316l244 -805l229 805h295l-455 -1309q-35 -99 -68.5 -142.5t-93.5 -68.5q-86 -35 -206 -35q-39 0 -103 9v215q48 -13 76 -13q75 0 126.5 53.5t51.5 131.5v6v2zM442 1243l144 307h258l-258 -307h-144z" />
<glyph unicode="&#xfe;" horiz-adv-x="1251" d="M119 -446v1939h287v-551q104 182 307 182q131 0 237 -76t166 -210t60 -301q0 -251 -132 -417.5t-331 -166.5q-204 0 -307 178v-577h-287zM406 537q0 -154 67 -249t174 -95q106 0 174 94.5t68 244.5q0 158 -66.5 255.5t-175.5 97.5q-107 0 -174 -96.5t-67 -251.5z" />
<glyph unicode="&#xff;" d="M18 1106h316l244 -805l229 805h295l-455 -1309q-35 -99 -68.5 -142.5t-93.5 -68.5q-86 -35 -206 -35q-39 0 -103 9v215q48 -13 76 -13q75 0 126.5 53.5t51.5 131.5v6v2zM256 1272v250h225v-250h-225zM637 1272v250h225v-250h-225z" />
<glyph unicode="&#x152;" horiz-adv-x="2048" d="M57 735q0 228 77.5 406.5t218.5 277.5t321 99q97 0 166 -29.5t143 -102.5v107h965v-256h-670v-338h612v-256h-612v-387h709v-256h-1004v121q-75 -95 -144 -131.5t-173 -36.5q-175 0 -314 99.5t-217 278.5t-78 404zM365 735q0 -233 99.5 -376.5t262.5 -143.5 q83 0 141.5 36t102.5 114v741q-44 78 -101.5 113.5t-140.5 35.5q-164 0 -264 -142.5t-100 -377.5z" />
<glyph unicode="&#x153;" horiz-adv-x="1933" d="M47 539q0 273 146 429t401 156q250 0 399 -155q134 155 369 155q170 0 296.5 -85t182.5 -236q43 -124 43 -291q0 -24 -2 -49h-741q3 -128 43 -193q28 -46 78.5 -72t111.5 -26q75 0 135 38.5t80 100.5h283q-50 -163 -188.5 -260.5t-323.5 -97.5q-111 0 -206.5 39.5 t-160.5 113.5q-156 -153 -399 -153q-255 0 -401 156t-146 430zM334 539q0 -159 71.5 -257t188.5 -98q115 0 187.5 98t72.5 253q0 163 -71 260.5t-189 97.5q-117 0 -188.5 -97.5t-71.5 -256.5zM1145 653h440q-11 108 -47 160q-30 42 -77 67t-97 25q-59 0 -108.5 -29.5 t-75.5 -80.5q-27 -56 -35 -142z" />
<glyph unicode="&#x178;" horiz-adv-x="1366" d="M55 1493h342l305 -659l285 659h344l-473 -940v-553h-307v553zM397 1638v250h226v-250h-226zM778 1638v250h226v-250h-226z" />
<glyph unicode="&#x2c6;" horiz-adv-x="681" d="M16 1243l222 307h219l211 -307h-160l-168 205l-168 -205h-156z" />
<glyph unicode="&#x2dc;" horiz-adv-x="681" d="M-18 1272q6 120 56.5 187t135.5 67q30 0 45 -3.5t70 -23.5l145 -51q28 -12 70 -12q65 0 74 98h129q-12 -260 -195 -260q-48 0 -113 24l-145 54q-38 12 -61 12q-37 0 -55.5 -21t-26.5 -71h-129z" />
<glyph unicode="&#x2000;" horiz-adv-x="972" />
<glyph unicode="&#x2001;" horiz-adv-x="1944" />
<glyph unicode="&#x2002;" horiz-adv-x="972" />
<glyph unicode="&#x2003;" horiz-adv-x="1944" />
<glyph unicode="&#x2004;" horiz-adv-x="648" />
<glyph unicode="&#x2005;" horiz-adv-x="486" />
<glyph unicode="&#x2006;" horiz-adv-x="324" />
<glyph unicode="&#x2007;" horiz-adv-x="324" />
<glyph unicode="&#x2008;" horiz-adv-x="243" />
<glyph unicode="&#x2009;" horiz-adv-x="388" />
<glyph unicode="&#x200a;" horiz-adv-x="108" />
<glyph unicode="&#x2010;" horiz-adv-x="681" d="M53 424v276h557v-276h-557z" />
<glyph unicode="&#x2011;" horiz-adv-x="681" d="M53 424v276h557v-276h-557z" />
<glyph unicode="&#x2012;" horiz-adv-x="681" d="M53 424v276h557v-276h-557z" />
<glyph unicode="&#x2013;" d="M-18 424v213h1159v-213h-1159z" />
<glyph unicode="&#x2014;" horiz-adv-x="2048" d="M-14 424v213h2068v-213h-2068z" />
<glyph unicode="&#x2018;" horiz-adv-x="569" d="M137 961v223q0 88 21 143t71 96q76 64 185 70v-94q-170 -30 -164 -182h164v-256h-277z" />
<glyph unicode="&#x2019;" horiz-adv-x="569" d="M135 961v94q170 30 164 182h-164v256h277v-223q0 -87 -21.5 -143t-71.5 -97q-75 -63 -184 -69z" />
<glyph unicode="&#x201a;" horiz-adv-x="569" d="M135 0v256h277v-223q0 -87 -21.5 -143t-71.5 -97q-75 -63 -184 -69v94q170 30 164 182h-164z" />
<glyph unicode="&#x201c;" horiz-adv-x="1024" d="M145 961v223q0 87 21.5 142.5t71.5 96.5q76 64 184 70v-94q-170 -30 -164 -182h164v-256h-277zM610 961v223q0 88 21 143t71 96q76 64 185 70v-94q-170 -30 -164 -182h164v-256h-277z" />
<glyph unicode="&#x201d;" horiz-adv-x="1024" d="M150 961v94q169 29 163 182h-163v256h276v-223q0 -88 -21.5 -143.5t-70.5 -96.5q-75 -63 -184 -69zM625 961v94q169 29 163 182h-163v256h276v-223q0 -88 -21.5 -143.5t-70.5 -96.5q-75 -63 -184 -69z" />
<glyph unicode="&#x201e;" horiz-adv-x="1024" d="M147 0v256h277v-223q0 -88 -21.5 -143.5t-70.5 -96.5q-75 -63 -185 -69v94q170 30 164 182h-164zM608 0v256h277v-223q0 -88 -21.5 -143.5t-70.5 -96.5q-75 -63 -185 -69v94q170 30 164 182h-164z" />
<glyph unicode="&#x2022;" horiz-adv-x="716" d="M102 614q0 107 75.5 181.5t184.5 74.5q103 0 177.5 -76t74.5 -180q0 -106 -75 -181t-181 -75t-181 75t-75 181z" />
<glyph unicode="&#x2026;" horiz-adv-x="2048" d="M188 0v299h308v-299h-308zM870 0v299h308v-299h-308zM1552 0v299h308v-299h-308z" />
<glyph unicode="&#x202f;" horiz-adv-x="388" />
<glyph unicode="&#x2039;" horiz-adv-x="681" d="M170 446v234l342 305v-240l-207 -182l207 -182v-234z" />
<glyph unicode="&#x203a;" horiz-adv-x="681" d="M164 147v240l207 182l-207 183v233l342 -299v-235z" />
<glyph unicode="&#x205f;" horiz-adv-x="486" />
<glyph unicode="&#x20ac;" d="M12 512l49 139h82q-4 29 -4 72t2 68h-129l49 139h99q57 263 210.5 408t374.5 145q107 0 185 -29t188 -111l-92 -264q-97 77 -163.5 107.5t-135.5 30.5q-95 0 -163 -73t-105 -214h514l-49 -139h-492q-6 -49 -6 -84q0 -36 4 -56h444l-51 -139h-370q40 -140 111 -215.5 t163 -75.5q61 0 119.5 21t179.5 86v-305q-125 -41 -188.5 -55.5t-122.5 -14.5q-122 0 -238.5 62.5t-185.5 164.5q-90 135 -131 332h-148z" />
<glyph unicode="&#x2122;" horiz-adv-x="2048" d="M145 1333v160h748v-160h-272v-774h-195v774h-281zM993 559v934h281l176 -717l172 717h281v-934h-187v715l-170 -715h-192l-174 715v-715h-187z" />
<glyph unicode="&#x25fc;" horiz-adv-x="1105" d="M0 0v1106h1106v-1106h-1106z" />
<glyph unicode="&#xfb01;" horiz-adv-x="1251" d="M18 893v190h156v134q0 276 283 276q85 0 164 -6v-215q-38 6 -82 6q-78 0 -78 -86v-109h170v-190h-170v-893h-287v893h-156zM836 0v1106h286v-1106h-286zM836 1237v256h286v-256h-286z" />
<glyph unicode="&#xfb02;" horiz-adv-x="1251" d="M25 893v190h155v134q0 276 283 276q85 0 164 -6v-215q-38 6 -82 6q-78 0 -78 -86v-109h170v-190h-170v-893h-287v893h-155zM831 0v1493h287v-1493h-287z" />
</font>
</defs>
</svg>
